<svg width="45" height="45" viewBox="0 0 45 45" fill="none" xmlns="http://www.w3.org/2000/svg">
<g id="vuesax/outline/arrow-left">
<g id="arrow-left">
<path id="Vector" d="M29.4599 38.7094L29.4662 38.7035L29.4723 38.6974C30.2113 37.9584 30.2113 36.7418 29.4723 36.0028L17.2473 23.7778C16.5426 23.0731 16.5426 21.9271 17.2473 21.2224L29.4723 8.9974C30.2113 8.25839 30.2113 7.04181 29.4723 6.30279C28.7333 5.56378 27.5167 5.56378 26.7777 6.30279L27.1274 6.65244L26.7777 6.30279L14.5527 18.5278C12.37 20.7106 12.37 24.2896 14.5527 26.4724L26.7777 38.6974C27.1577 39.0774 27.6433 39.2563 28.125 39.2563C28.6214 39.2563 29.0965 39.0486 29.4599 38.7094Z" fill="#842EB3" stroke="#842EB3"/>
</g>
</g>
</svg>
