<svg width="45" height="45" viewBox="0 0 45 45" fill="none" xmlns="http://www.w3.org/2000/svg">
<g id="vuesax/outline/arrow-right">
<g id="arrow-right">
<path id="Vector" d="M18.0412 38.7094L18.0475 38.7035L18.0536 38.6974L30.2751 26.4758C30.2757 26.4752 30.2763 26.4747 30.2769 26.4741C31.35 25.4207 31.925 23.9975 31.925 22.5001C31.925 20.9976 31.3278 19.577 30.2786 18.5278L18.0536 6.30279C17.3145 5.56378 16.098 5.56378 15.3589 6.30279C14.6199 7.04181 14.6199 8.25839 15.3589 8.9974L27.5839 21.2224C28.2887 21.9271 28.2887 23.0731 27.5839 23.7778L15.3589 36.0028C14.6199 36.7418 14.6199 37.9584 15.3589 38.6974C15.7389 39.0774 16.2245 39.2563 16.7062 39.2563C17.2027 39.2563 17.6777 39.0486 18.0412 38.7094Z" fill="#842EB3" stroke="#842EB3"/>
</g>
</g>
</svg>
