<svg width="51" height="51" viewBox="0 0 51 51" fill="none" xmlns="http://www.w3.org/2000/svg">
<rect opacity="0.2" width="50.5722" height="50.5722" rx="7.08011" fill="#1A9AFB" fill-opacity="0.5"/>
<path fill-rule="evenodd" clip-rule="evenodd" d="M24.7049 12.2133C17.8017 12.2133 12.2055 17.8095 12.2055 24.7127C12.2055 31.616 17.8017 37.2121 24.7049 37.2121C31.6081 37.2121 37.2043 31.616 37.2043 24.7127C37.2043 17.8095 31.6081 12.2133 24.7049 12.2133ZM10.8167 24.7127C10.8167 17.0425 17.0347 10.8245 24.7049 10.8245C32.3752 10.8245 38.5931 17.0425 38.5931 24.7127C38.5931 32.383 32.3752 38.601 24.7049 38.601C17.0347 38.601 10.8167 32.383 10.8167 24.7127Z" fill="#019FFE"/>
<path fill-rule="evenodd" clip-rule="evenodd" d="M10.8167 24.7127C10.8167 24.3292 11.1276 24.0183 11.5111 24.0183H37.8987C38.2822 24.0183 38.5931 24.3292 38.5931 24.7127C38.5931 25.0962 38.2822 25.4071 37.8987 25.4071H11.5111C11.1276 25.4071 10.8167 25.0962 10.8167 24.7127Z" fill="#019FFE"/>
<path fill-rule="evenodd" clip-rule="evenodd" d="M24.7049 10.8245C24.8987 10.8245 25.0837 10.9055 25.2152 11.0479C28.6511 14.7702 30.8102 19.6489 30.9543 24.6929C30.9547 24.7061 30.9547 24.7194 30.9543 24.7326C30.8102 29.7766 28.6511 34.6553 25.2152 38.3775C25.0837 38.52 24.8987 38.601 24.7049 38.601C24.5111 38.601 24.3261 38.52 24.1947 38.3775C20.7587 34.6553 18.5996 29.7766 18.4555 24.7326C18.4551 24.7194 18.4551 24.7061 18.4555 24.6929C18.5996 19.6489 20.7587 14.7702 24.1947 11.0479C24.3261 10.9055 24.5111 10.8245 24.7049 10.8245ZM19.8443 24.7127C19.9756 29.1321 21.7788 33.4499 24.7049 36.8621C27.6311 33.4499 29.4342 29.1321 29.5655 24.7127C29.4342 20.2934 27.6311 15.9756 24.7049 12.5634C21.7788 15.9756 19.9756 20.2934 19.8443 24.7127Z" fill="#019FFE"/>
<path fill-rule="evenodd" clip-rule="evenodd" d="M12.8999 18.463C12.8999 18.0795 13.2108 17.7686 13.5944 17.7686H35.8155C36.199 17.7686 36.5099 18.0795 36.5099 18.463C36.5099 18.8465 36.199 19.1574 35.8155 19.1574H13.5944C13.2108 19.1574 12.8999 18.8465 12.8999 18.463Z" fill="#019FFE"/>
<path fill-rule="evenodd" clip-rule="evenodd" d="M12.8999 30.9624C12.8999 30.5789 13.2108 30.268 13.5944 30.268H35.8155C36.199 30.268 36.5099 30.5789 36.5099 30.9624C36.5099 31.3459 36.199 31.6568 35.8155 31.6568H13.5944C13.2108 31.6568 12.8999 31.3459 12.8999 30.9624Z" fill="#019FFE"/>
</svg>
