<svg width="51" height="51" viewBox="0 0 51 51" fill="none" xmlns="http://www.w3.org/2000/svg">
<rect opacity="0.2" width="50.5722" height="50.5722" rx="7.08011" fill="#1A9AFB" fill-opacity="0.5"/>
<path d="M32.5843 8.7197L32.5492 8.04638L31.879 8.1185C31.8133 8.12552 25.336 8.90606 24.8918 16.148L24.8471 16.873L25.5722 16.8238C25.6462 16.8187 32.9825 16.2335 32.5843 8.7197ZM31.32 9.52833C31.1981 13.8925 27.8027 15.1064 26.2442 15.4338C26.8377 11.1928 29.9133 9.90041 31.32 9.52833Z" fill="#019FFE"/>
<path d="M38.8265 31.9903L38.4187 31.8581C35.9507 31.0604 34.2932 28.7998 34.2932 26.2329C34.2932 23.9493 35.5844 21.907 37.6637 20.9025L38.284 20.6031L37.9381 20.0077C37.79 19.7524 36.4057 17.4912 33.4814 16.7425C31.1621 16.149 28.5544 16.6742 25.7277 18.3043C24.531 17.578 20.5562 15.4846 17.3938 17.5831C16.7747 17.9252 10.2132 21.856 13.6283 32.4619C13.7285 32.6993 16.1097 38.278 18.9274 40.3675C19.6876 41.0938 21.6316 42.0014 23.8532 40.4869C24.2381 40.328 26.8133 39.3368 28.4471 40.4977C29.0503 40.9107 30.1033 41.3785 31.2157 41.3785C32.0595 41.3785 32.937 41.1098 33.6786 40.3439C34.0245 40.0446 37.1844 37.2243 38.8265 32.7568L38.8744 32.6266L38.8265 31.9903ZM32.826 39.3923L32.7768 39.4389C31.3772 40.9088 29.2551 39.5028 29.1766 39.4504C28.3418 38.8569 27.3749 38.6635 26.468 38.6635C24.822 38.6635 23.3746 39.3011 23.282 39.3426L23.178 39.4013C21.2512 40.746 19.932 39.5627 19.7922 39.4281L19.7169 39.3636C17.1685 37.5051 14.8262 32.0196 14.823 32.0177C11.6268 22.0819 17.7499 18.8321 18.0103 18.7L18.0805 18.6585C21.0463 16.6672 25.3096 19.5494 25.3518 19.5781L25.6919 19.8117L26.0442 19.5992C28.6992 17.9941 31.0951 17.4484 33.1649 17.9788C34.851 18.4102 35.9258 19.4639 36.4517 20.1117C34.3156 21.4207 33.0174 23.7049 33.0174 26.2329C33.0174 29.1406 34.763 31.7241 37.4224 32.848C35.7854 36.8439 32.8572 39.3662 32.826 39.3923Z" fill="#019FFE"/>
</svg>
