<svg width="51" height="51" viewBox="0 0 51 51" fill="none" xmlns="http://www.w3.org/2000/svg">
<rect opacity="0.2" width="50.5722" height="50.5722" rx="7.08011" fill="#1A9AFB" fill-opacity="0.5"/>
<path d="M39.3005 7.93115H10.1353C8.90371 7.93115 7.93711 9.10706 7.93711 10.5151V13.6014V14.8359V38.9088C7.93711 40.3168 8.9037 41.4927 10.1353 41.4927H39.3005C40.532 41.4927 41.4987 40.3168 41.4987 38.9088V14.8359V13.6014V10.5151C41.4987 9.10706 40.532 7.93115 39.3005 7.93115ZM40.2272 38.9088C40.2272 39.5451 39.7939 40.0284 39.3005 40.0284H10.1353C9.64194 40.0284 9.2086 39.5451 9.2086 38.9088V14.9508H40.2272V38.9088ZM40.2272 13.4864H9.2086V10.5151C9.2086 9.8788 9.64194 9.39553 10.1353 9.39553H39.3005C39.7939 9.39553 40.2272 9.8788 40.2272 10.5151V13.4864Z" fill="#019FFE" stroke="#019FFE" stroke-width="0.229874"/>
<path d="M11.1751 10.4005C10.5915 10.4005 10.1488 10.9556 10.1488 11.5957C10.1488 12.2357 10.5915 12.7908 11.1751 12.7908C11.7587 12.7908 12.2015 12.2357 12.2015 11.5957C12.2015 10.9556 11.7587 10.4005 11.1751 10.4005ZM11.1751 11.9437C11.0404 11.9437 10.8995 11.8069 10.8995 11.5957C10.8995 11.3844 11.0404 11.2477 11.1751 11.2477C11.3098 11.2477 11.4508 11.3844 11.4508 11.5957C11.4508 11.8069 11.3098 11.9437 11.1751 11.9437Z" fill="#019FFE" stroke="#019FFE" stroke-width="0.229874"/>
<path d="M16.3871 10.4005C15.8036 10.4005 15.3608 10.9556 15.3608 11.5957C15.3608 12.2357 15.8035 12.7908 16.3871 12.7908C16.9707 12.7908 17.4135 12.2357 17.4135 11.5957C17.4135 10.9556 16.9707 10.4005 16.3871 10.4005ZM16.3871 11.9437C16.2524 11.9437 16.1115 11.8069 16.1115 11.5957C16.1115 11.3844 16.2524 11.2477 16.3871 11.2477C16.5219 11.2477 16.6628 11.3844 16.6628 11.5957C16.6628 11.8069 16.5219 11.9437 16.3871 11.9437Z" fill="#019FFE" stroke="#019FFE" stroke-width="0.229874"/>
<path d="M13.7768 10.4005C13.1933 10.4005 12.7505 10.9556 12.7505 11.5957C12.7505 12.2357 13.1933 12.7908 13.7768 12.7908C14.3604 12.7908 14.8032 12.2357 14.8032 11.5957C14.8032 10.9556 14.3604 10.4005 13.7768 10.4005ZM13.7768 11.9437C13.6421 11.9437 13.5012 11.8069 13.5012 11.5957C13.5012 11.3844 13.6421 11.2477 13.7768 11.2477C13.9116 11.2477 14.0525 11.3844 14.0525 11.5957C14.0525 11.8069 13.9116 11.9437 13.7768 11.9437Z" fill="#019FFE" stroke="#019FFE" stroke-width="0.229874"/>
</svg>
