<svg width="27" height="34" viewBox="0 0 27 34" fill="none" xmlns="http://www.w3.org/2000/svg">
<path d="M20.5843 0.719702L20.5492 0.0463791L19.879 0.118498C19.8133 0.125518 13.336 0.906062 12.8918 8.14795L12.8471 8.87297L13.5722 8.82383C13.6462 8.81872 20.9825 8.23347 20.5843 0.719702ZM19.32 1.52833C19.1981 5.89248 15.8027 7.10637 14.2442 7.43378C14.8377 3.19281 17.9133 1.90041 19.32 1.52833Z" fill="#019FFE"/>
<path d="M26.8265 23.9903L26.4187 23.8581C23.9507 23.0604 22.2932 20.7998 22.2932 18.2329C22.2932 15.9493 23.5844 13.907 25.6637 12.9025L26.284 12.6031L25.9381 12.0077C25.79 11.7524 24.4057 9.49116 21.4814 8.74253C19.1621 8.14899 16.5544 8.67424 13.7277 10.3043C12.531 9.57796 8.55617 7.4846 5.39379 9.58307C4.77472 9.92515 -1.78683 13.856 1.62829 24.4619C1.72849 24.6993 4.10969 30.278 6.92744 32.3675C7.68756 33.0938 9.63158 34.0014 11.8532 32.4869C12.2381 32.328 14.8133 31.3368 16.4471 32.4977C17.0503 32.9107 18.1033 33.3785 19.2157 33.3785C20.0595 33.3785 20.937 33.1098 21.6786 32.3439C22.0245 32.0446 25.1844 29.2243 26.8265 24.7568L26.8744 24.6266L26.8265 23.9903ZM20.826 31.3923L20.7768 31.4389C19.3772 32.9088 17.2551 31.5028 17.1766 31.4504C16.3418 30.8569 15.3749 30.6635 14.468 30.6635C12.822 30.6635 11.3746 31.3011 11.282 31.3426L11.178 31.4013C9.2512 32.746 7.93199 31.5627 7.79222 31.4281L7.71691 31.3636C5.1685 29.5051 2.82623 24.0196 2.82304 24.0177C-0.373169 14.0819 5.74992 10.8321 6.01031 10.7L6.08052 10.6585C9.04633 8.66722 13.3096 11.5494 13.3518 11.5781L13.6919 11.8117L14.0442 11.5992C16.6992 9.99408 19.0951 9.4484 21.1649 9.97876C22.851 10.4102 23.9258 11.4639 24.4517 12.1117C22.3156 13.4207 21.0174 15.7049 21.0174 18.2329C21.0174 21.1406 22.763 23.7241 25.4224 24.848C23.7854 28.8439 20.8572 31.3662 20.826 31.3923Z" fill="#019FFE"/>
</svg>
