<svg width="51" height="51" viewBox="0 0 51 51" fill="none" xmlns="http://www.w3.org/2000/svg">
<rect opacity="0.2" width="50.5722" height="50.5722" rx="7.08011" fill="#1A9AFB" fill-opacity="0.5"/>
<path d="M28.9447 11.366L30.4048 8.93221C30.5709 8.65503 30.4814 8.29599 30.2043 8.12992C29.9265 7.96327 29.5681 8.05273 29.402 8.33049L27.8612 10.8987C26.9437 10.5724 25.9613 10.3853 24.9333 10.3853C23.9053 10.3853 22.9229 10.5724 22.0054 10.8987L20.4646 8.33049C20.2985 8.05273 19.9395 7.96385 19.6623 8.12992C19.3851 8.29599 19.2956 8.65503 19.4617 8.93221L20.9218 11.366C18.0992 12.8249 16.1619 15.7663 16.1619 19.1573C16.1619 19.4806 16.4239 19.742 16.7467 19.742H33.1199C33.4427 19.742 33.7046 19.4806 33.7046 19.1573C33.704 15.7668 31.7673 12.8255 28.9447 11.366ZM17.3537 18.5725C17.6531 14.6529 20.9382 11.5554 24.9333 11.5554C28.9283 11.5554 32.2135 14.6529 32.5129 18.5725H17.3537Z" fill="#019FFE"/>
<path d="M29.0193 14.6906H28.2486C28.0357 14.6906 27.8632 14.8631 27.8632 15.076V15.8467C27.8632 16.0595 28.0357 16.232 28.2486 16.232H29.0199C29.2327 16.232 29.4052 16.0595 29.4052 15.8467V15.076C29.4052 14.8631 29.2321 14.6906 29.0193 14.6906Z" fill="#019FFE"/>
<path d="M21.6305 14.6906H20.8592C20.6463 14.6906 20.4738 14.8631 20.4738 15.076V15.8467C20.4738 16.0595 20.6463 16.232 20.8592 16.232H21.6305C21.8433 16.232 22.0158 16.0595 22.0158 15.8467V15.076C22.0158 14.8631 21.8433 14.6906 21.6305 14.6906Z" fill="#019FFE"/>
<path d="M33.1199 20.3266H16.7467C16.4239 20.3266 16.1619 20.5879 16.1619 20.9113V32.7064C16.1619 34.2636 17.4303 35.5302 18.9886 35.5302H19.6705V39.0423C19.6705 40.3299 20.7195 41.3778 22.0095 41.3778C23.2995 41.3778 24.3485 40.3299 24.3485 39.0423V35.5302H25.518V39.0423C25.518 40.3299 26.5671 41.3778 27.8571 41.3778C29.147 41.3778 30.1961 40.3299 30.1961 39.0423V35.5302H30.8779C32.4369 35.5302 33.7046 34.2636 33.7046 32.7064V20.9113C33.7046 20.5879 33.4432 20.3266 33.1199 20.3266ZM32.5351 32.7064C32.5351 33.6187 31.7919 34.3607 30.8779 34.3607H29.6113C29.2885 34.3607 29.0266 34.6221 29.0266 34.9455V39.0423C29.0266 39.6855 28.502 40.2083 27.8571 40.2083C27.2121 40.2083 26.6875 39.6849 26.6875 39.0423V34.9455C26.6875 34.6221 26.4256 34.3607 26.1028 34.3607H23.7638C23.441 34.3607 23.179 34.6221 23.179 34.9455V39.0423C23.179 39.6855 22.6545 40.2083 22.0095 40.2083C21.3645 40.2083 20.84 39.6849 20.84 39.0423V34.9455C20.84 34.6221 20.578 34.3607 20.2552 34.3607H18.9892C18.0752 34.3607 17.3314 33.6181 17.3314 32.7064V21.4961H32.5351V32.7064Z" fill="#019FFE"/>
<path d="M36.3349 20.3266C35.2063 20.3266 34.2882 21.2458 34.2882 22.3755V30.5575C34.2882 31.6872 35.2063 32.6064 36.3349 32.6064C37.4634 32.6064 38.3815 31.6872 38.3815 30.5575V22.3755C38.3815 21.2458 37.4634 20.3266 36.3349 20.3266ZM37.212 30.5575C37.212 31.0422 36.8184 31.4369 36.3349 31.4369C35.8513 31.4369 35.4577 31.0422 35.4577 30.5575V22.3755C35.4577 21.8908 35.8513 21.4961 36.3349 21.4961C36.8184 21.4961 37.212 21.8908 37.212 22.3755V30.5575Z" fill="#019FFE"/>
<path d="M13.5323 20.3266C12.4038 20.3266 11.4857 21.2458 11.4857 22.3755V30.5575C11.4857 31.6872 12.4038 32.6064 13.5323 32.6064C14.6609 32.6064 15.579 31.6872 15.579 30.5575V22.3755C15.579 21.2458 14.6609 20.3266 13.5323 20.3266ZM14.4095 30.5575C14.4095 31.0422 14.0159 31.4369 13.5323 31.4369C13.0487 31.4369 12.6552 31.0422 12.6552 30.5575V22.3755C12.6552 21.8908 13.0487 21.4961 13.5323 21.4961C14.0159 21.4961 14.4095 21.8908 14.4095 22.3755V30.5575Z" fill="#019FFE"/>
</svg>
