<svg width="60" height="60" viewBox="0 0 60 60" fill="none" xmlns="http://www.w3.org/2000/svg">
<g id="Layer 2">
<g id="shield">
<path id="Vector" d="M30.0042 54.6247C29.1306 54.6384 28.2686 54.4229 27.5042 53.9997L26.7542 53.5747C20.9124 50.2696 16.0524 45.4733 12.6704 39.6757C9.28844 33.878 7.5057 27.2867 7.50423 20.5747V20.2247C7.4963 19.3394 7.72357 18.4679 8.16281 17.6993C8.60205 16.9306 9.23751 16.2923 10.0042 15.8497L27.5042 5.99971C28.2643 5.56087 29.1265 5.32983 30.0042 5.32983C30.8819 5.32983 31.7441 5.56087 32.5042 5.99971L50.0042 15.8497C50.771 16.2923 51.4064 16.9306 51.8456 17.6993C52.2849 18.4679 52.5122 19.3394 52.5042 20.2247V20.5747C52.4978 27.2916 50.7075 33.8863 47.3165 39.6844C43.9254 45.4825 39.0554 50.276 33.2042 53.5747L32.4542 53.9997C31.7046 54.4145 30.861 54.6297 30.0042 54.6247ZM30.0042 10.3747L12.5042 20.2247V20.5747C12.5084 26.4025 14.0617 32.1243 17.005 37.1542C19.9482 42.1841 24.1757 46.3412 29.2542 49.1997L30.0042 49.6247L30.7542 49.1997C35.8328 46.3412 40.0602 42.1841 43.0035 37.1542C45.9467 32.1243 47.5 26.4025 47.5042 20.5747V20.2247L30.0042 10.3747Z" fill="#1A9AFB"/>
</g>
</g>
</svg>
