<svg width="50" height="53" viewBox="0 0 50 53" fill="none" xmlns="http://www.w3.org/2000/svg">
<g id="vuesax/outline/people">
<g id="people">
<path id="Vector" d="M37.687 17.2016C37.6258 17.2016 37.585 17.2016 37.5238 17.2016H37.4218C33.5655 17.0711 30.6886 13.8961 30.6886 9.98179C30.6886 5.98045 33.7491 2.74023 37.483 2.74023C41.2168 2.74023 44.2774 6.0022 44.2774 9.98179C44.257 13.9179 41.3801 17.0929 37.7074 17.2233C37.7074 17.2016 37.7074 17.2016 37.687 17.2016ZM37.483 5.98046C35.4222 5.98046 33.7491 7.76367 33.7491 9.96005C33.7491 12.1129 35.3202 13.8527 37.3402 13.9396C37.3606 13.9179 37.5238 13.9179 37.7074 13.9396C39.6866 13.8309 41.2168 12.0912 41.2373 9.96005C41.2373 7.76367 39.5642 5.98046 37.483 5.98046Z" fill="#1A9AFB"/>
<path id="Vector_2" d="M37.708 33.2287C36.9122 33.2287 36.1165 33.1634 35.3208 33.0112C34.4842 32.859 33.9333 32.0109 34.0761 31.1193C34.219 30.2277 35.0147 29.6405 35.8513 29.7928C38.3609 30.2494 41.0134 29.7493 42.7885 28.488C43.7475 27.8138 44.2576 26.9657 44.2576 26.1176C44.2576 25.2695 43.7271 24.4431 42.7885 23.769C41.0134 22.5077 38.3201 22.0075 35.79 22.486C34.9535 22.6599 34.1578 22.051 34.0149 21.1594C33.8721 20.2678 34.423 19.4197 35.2596 19.2675C38.5854 18.6369 42.0336 19.311 44.482 21.0507C46.2775 22.3337 47.3181 24.1604 47.3181 26.1176C47.3181 28.053 46.2979 29.9015 44.482 31.2063C42.6253 32.5111 40.2176 33.2287 37.708 33.2287Z" fill="#1A9AFB"/>
<path id="Vector_3" d="M13.1437 17.2016C13.1233 17.2016 13.1029 17.2016 13.1029 17.2016C9.43025 17.0711 6.55333 13.8961 6.53293 9.98179C6.53293 5.98046 9.59348 2.71851 13.3274 2.71851C17.0612 2.71851 20.1218 5.98047 20.1218 9.96006C20.1218 13.8962 17.2449 17.0711 13.5722 17.2016L13.1437 15.5706L13.2865 17.2016C13.2457 17.2016 13.1845 17.2016 13.1437 17.2016ZM13.3478 13.9397C13.4702 13.9397 13.5722 13.9396 13.6946 13.9614C15.5105 13.8744 17.102 12.1347 17.102 9.98179C17.102 7.78541 15.4289 6.0022 13.3682 6.0022C11.3074 6.0022 9.63429 7.78541 9.63429 9.98179C9.63429 12.1129 11.185 13.8309 13.1641 13.9614C13.1845 13.9396 13.2661 13.9397 13.3478 13.9397Z" fill="#1A9AFB"/>
<path id="Vector_4" d="M13.1227 33.2287C10.613 33.2287 8.20541 32.5111 6.34867 31.2063C4.55315 29.9233 3.51257 28.0748 3.51257 26.1176C3.51257 24.1822 4.55315 22.3337 6.34867 21.0507C8.79711 19.311 12.2453 18.6369 15.5711 19.2675C16.4077 19.4197 16.9586 20.2678 16.8158 21.1594C16.6729 22.051 15.8772 22.6599 15.0406 22.486C12.5106 22.0075 9.8377 22.5077 8.04218 23.769C7.08321 24.4431 6.57311 25.2695 6.57311 26.1176C6.57311 26.9657 7.10361 27.8138 8.04218 28.488C9.8173 29.7493 12.4698 30.2494 14.9794 29.7928C15.816 29.6405 16.6117 30.2494 16.7545 31.1193C16.8974 32.0109 16.3465 32.859 15.5099 33.0112C14.7142 33.1634 13.9184 33.2287 13.1227 33.2287Z" fill="#1A9AFB"/>
<path id="Vector_5" d="M25.4475 33.446C25.3862 33.446 25.3454 33.446 25.2842 33.446H25.1822C21.3259 33.3155 18.449 30.1405 18.449 26.2262C18.449 22.2248 21.5095 18.9846 25.2434 18.9846C28.9773 18.9846 32.0378 22.2466 32.0378 26.2262C32.0174 30.1623 29.1405 33.3372 25.4679 33.4677C25.4679 33.446 25.4679 33.446 25.4475 33.446ZM25.2434 22.2248C23.1826 22.2248 21.5095 24.0081 21.5095 26.2044C21.5095 28.3573 23.0806 30.097 25.1006 30.184C25.121 30.1623 25.2842 30.1623 25.4679 30.184C27.447 30.0753 28.9773 28.3356 28.9977 26.2044C28.9977 24.0298 27.3246 22.2248 25.2434 22.2248Z" fill="#1A9AFB"/>
<path id="Vector_6" d="M25.4463 49.4946C22.9978 49.4946 20.5494 48.8205 18.6518 47.4505C16.8563 46.1674 15.8157 44.3407 15.8157 42.3836C15.8157 40.4481 16.8359 38.5779 18.6518 37.2949C22.4673 34.5983 28.4456 34.5983 32.2407 37.2949C34.0362 38.5779 35.0768 40.4046 35.0768 42.3618C35.0768 44.2972 34.0566 46.1674 32.2407 47.4505C30.3431 48.7987 27.8947 49.4946 25.4463 49.4946ZM20.3453 40.0349C19.3864 40.7091 18.8763 41.5572 18.8763 42.4053C18.8763 43.2534 19.4068 44.0798 20.3453 44.7539C23.0998 46.7328 27.7723 46.7328 30.5268 44.7539C31.4857 44.0798 31.9958 43.2317 31.9958 42.3836C31.9958 41.5354 31.4653 40.7091 30.5268 40.0349C27.7927 38.056 23.1202 38.0778 20.3453 40.0349Z" fill="#1A9AFB"/>
</g>
</g>
</svg>
