<svg width="57" height="56" viewBox="0 0 57 56" fill="none" xmlns="http://www.w3.org/2000/svg">
<g id="vuesax/outline/keyboard-open">
<g id="keyboard-open">
<path id="Vector" d="M39.6143 45.2093H17.7596C15.9365 45.2093 14.621 45.14 13.4902 44.9784C5.48221 44.1015 3.88984 39.3013 3.88984 31.3395V16.7543C3.88984 8.79246 5.45914 3.9922 13.5364 3.11524C14.6441 2.9537 15.9596 2.88452 17.7596 2.88452H39.6143C41.4144 2.88452 42.7298 2.9537 43.8837 3.11524C51.9148 3.9922 53.4841 8.79246 53.4841 16.7543V31.3395C53.4841 39.3013 51.9148 44.1015 43.8376 44.9784C42.7529 45.14 41.4375 45.2093 39.6143 45.2093ZM17.7365 6.34619C16.098 6.34619 14.921 6.41549 13.9518 6.55395C8.96695 7.10782 7.32844 8.65402 7.32844 16.7774V31.3626C7.32844 39.4629 8.96698 41.0322 13.9056 41.563C14.9211 41.7014 16.098 41.7706 17.7596 41.7706H39.6143C41.2759 41.7706 42.4298 41.7014 43.3991 41.563C48.3839 41.0091 50.0224 39.4629 50.0224 31.3395V16.7543C50.0224 8.654 48.3838 7.08474 43.4452 6.55395C42.4067 6.41549 41.2528 6.34619 39.5912 6.34619H17.7365Z" fill="#1A9AFB"/>
<path id="Vector_2" d="M40.812 20.9316H32.3194C31.3732 20.9316 30.5885 20.147 30.5885 19.2008C30.5885 18.2546 31.3732 17.47 32.3194 17.47H40.812C41.7582 17.47 42.5428 18.2546 42.5428 19.2008C42.5428 20.147 41.7812 20.9316 40.812 20.9316Z" fill="#1A9AFB"/>
<path id="Vector_3" d="M24.0598 21.5086C22.7905 21.5086 21.752 20.4701 21.752 19.2008C21.752 17.9316 22.7674 16.8931 24.0598 16.8931C25.3291 16.8931 26.3676 17.9316 26.3676 19.2008C26.3676 20.4701 25.3521 21.5086 24.0598 21.5086Z" fill="#1A9AFB"/>
<path id="Vector_4" d="M16.7916 21.5086C15.5223 21.5086 14.4838 20.4701 14.4838 19.2008C14.4838 17.9316 15.4992 16.8931 16.7916 16.8931H16.8146C18.0839 16.8931 19.1224 17.9316 19.1224 19.2008C19.1224 20.4701 18.0609 21.5086 16.7916 21.5086Z" fill="#1A9AFB"/>
<path id="Vector_5" d="M40.8152 34.293H16.5604C15.6142 34.293 14.8065 33.5083 14.8065 32.5621C14.8065 31.6159 15.5681 30.8313 16.5142 30.8313H40.8152C41.7614 30.8313 42.546 31.6159 42.546 32.5621C42.546 33.5083 41.7844 34.293 40.8152 34.293Z" fill="#1A9AFB"/>
<path id="Vector_6" d="M40.2154 52.5018H17.1376C16.1914 52.5018 15.4067 51.7172 15.4067 50.771C15.4067 49.8248 16.1914 49.0402 17.1376 49.0402H40.2154C41.1615 49.0402 41.9462 49.8248 41.9462 50.771C41.9462 51.7172 41.1615 52.5018 40.2154 52.5018Z" fill="#1A9AFB"/>
</g>
</g>
</svg>
