<svg width="35" height="35" viewBox="0 0 35 35" fill="none" xmlns="http://www.w3.org/2000/svg">
<path id="Vector" d="M7.83437 35H0.578125V11.6323H7.83437V35ZM4.20234 8.44472C1.88203 8.44472 0 6.5228 0 4.20244C1.66078e-08 3.08788 0.442746 2.01898 1.23084 1.23087C2.01893 0.442755 3.08781 0 4.20234 0C5.31687 0 6.38576 0.442755 7.17385 1.23087C7.96194 2.01898 8.40469 3.08788 8.40469 4.20244C8.40469 6.5228 6.52187 8.44472 4.20234 8.44472ZM34.9922 35H27.7516V23.6247C27.7516 20.9137 27.6969 17.4371 23.9789 17.4371C20.2062 17.4371 19.6281 20.3825 19.6281 23.4294V35H12.3797V11.6323H19.3391V14.8199H19.4406C20.4094 12.9839 22.7758 11.0463 26.3062 11.0463C33.65 11.0463 35 15.8824 35 22.1638V35H34.9922Z" fill="white"/>
</svg>
