<svg width="42" height="31" viewBox="0 0 42 31" fill="none" xmlns="http://www.w3.org/2000/svg">
<path id="Vector" d="M37.6828 7.72575C37.7095 8.0648 37.7095 8.40392 37.7095 8.74297C37.7095 19.0843 29.0484 31 13.2183 31C8.34138 31 3.81094 29.7163 0 27.4883C0.692921 27.5609 1.3591 27.5852 2.07868 27.5852C6.10274 27.5852 9.80712 26.35 12.7653 24.243C8.98098 24.1703 5.80964 21.918 4.71698 18.818C5.25002 18.8906 5.78298 18.939 6.34268 18.939C7.1155 18.939 7.8884 18.8421 8.6079 18.6727C4.66374 17.946 1.70552 14.7976 1.70552 10.9953V10.8985C2.85142 11.4797 4.18402 11.843 5.59636 11.8914C3.27782 10.4867 1.75884 8.08903 1.75884 5.37651C1.75884 3.92341 2.18516 2.59138 2.9314 1.42887C7.16874 6.17574 13.5381 9.27569 20.6802 9.61481C20.5469 9.03356 20.467 8.42815 20.467 7.82267C20.467 3.51168 24.3046 0 29.0749 0C31.5533 0 33.7918 0.944529 35.3642 2.47031C37.3096 2.13127 39.1751 1.47733 40.8274 0.581254C40.1878 2.3977 38.8287 3.92348 37.0432 4.89217C38.7754 4.72272 40.4544 4.28668 42 3.68128C40.8276 5.23121 39.3618 6.61163 37.6828 7.72575Z" fill="white"/>
</svg>
